<svg width="103" height="32" viewBox="0 0 103 32" fill="none" xmlns="http://www.w3.org/2000/svg">
<path d="M77.2813 12.2731C77.2795 12.2731 77.2758 12.2731 77.274 12.2731L77.2721 12.2712H74.6598V9.48822C74.6598 9.38896 74.5829 9.30688 74.4876 9.30688H72.1135C72.0182 9.30688 71.9395 9.38896 71.9395 9.48822V12.2712H70.7982C70.7029 12.2712 70.626 12.3532 70.626 12.4525V14.5788C70.626 14.6781 70.7029 14.7602 70.7982 14.7602H71.9395V20.2611C71.9395 22.4829 73.002 23.611 75.0977 23.611C75.9477 23.611 76.6548 23.4277 77.3198 23.0345C77.3747 23.004 77.4077 22.9429 77.4077 22.878V20.8528C77.4077 20.7918 77.3766 20.7326 77.3253 20.7001C77.274 20.6658 77.2099 20.6639 77.1567 20.6925C76.7006 20.9311 76.2591 21.0418 75.7627 21.0418C75.0024 21.0418 74.6598 20.6811 74.6598 19.8737V14.7621H77.2721C77.3674 14.7621 77.4443 14.68 77.4443 14.5807V12.4544C77.4462 12.357 77.3729 12.2769 77.2813 12.2731Z" fill="#ADB7C2"/>
<path d="M41.7837 14.7736L41.7782 14.7716C39.1274 14.1131 38.6548 13.6512 38.6548 12.6797C38.6548 11.7616 39.4828 11.145 40.7175 11.145C41.9137 11.145 43.0971 11.6146 44.341 12.5804C44.3776 12.609 44.4253 12.6205 44.4711 12.6129C44.5169 12.6052 44.559 12.5785 44.5865 12.5384L45.8816 10.6373C45.9348 10.5591 45.9201 10.4522 45.8487 10.3911C44.3685 9.15423 42.7033 8.55298 40.756 8.55298C37.8927 8.55298 35.8922 10.3434 35.8922 12.9049C35.8922 15.6516 37.6179 16.6231 40.6003 17.3752C43.1356 17.9841 43.5661 18.4937 43.5661 19.4061C43.5661 20.4177 42.7015 21.0457 41.3074 21.0457C39.7594 21.0457 38.4954 20.5017 37.0848 19.2286C37.05 19.198 37.0042 19.1827 36.9584 19.1847C36.9108 19.1885 36.8687 19.2114 36.8393 19.2476L35.3866 21.0476C35.3262 21.1239 35.3335 21.2346 35.4031 21.2995C37.0464 22.8284 39.0669 23.6339 41.2487 23.6339C44.3337 23.6339 46.3268 21.8779 46.3268 19.1598C46.3323 16.8617 45.0133 15.5905 41.7837 14.7736Z" fill="#ADB7C2"/>
<path d="M15.3551 0C6.87515 0 0 7.16349 0 15.999C0 24.8365 6.87515 31.9981 15.3569 31.9981C23.8386 31.9981 30.7138 24.8346 30.7138 15.999C30.7119 7.16349 23.8386 0 15.3551 0ZM22.3987 23.0766C22.124 23.5462 21.5341 23.6951 21.0834 23.4088C21.0834 23.4088 21.0816 23.4088 21.0816 23.4069C17.4764 21.1126 12.9369 20.5934 7.59143 21.8646C7.07666 21.9868 6.56373 21.6508 6.44465 21.1145C6.32741 20.5781 6.64799 20.0437 7.16276 19.9215H7.16459C13.0139 18.5281 18.0315 19.1294 22.08 21.7062C22.5325 21.9925 22.6754 22.6071 22.3987 23.0766ZM24.2783 18.7209C23.932 19.3069 23.1938 19.492 22.6314 19.1313C18.5041 16.4877 12.2115 15.7223 7.32946 17.2664C6.69562 17.465 6.02698 17.0947 5.83463 16.4361C5.64411 15.7776 6.00133 15.0809 6.63334 14.8805C12.2097 13.1168 19.1434 13.972 23.8844 17.0069C24.4468 17.3657 24.6245 18.1349 24.2783 18.7209ZM26.4088 13.657C26.4088 13.6589 26.407 13.6589 26.407 13.6608C26.0039 14.3728 25.1191 14.6057 24.4395 14.1838C19.4897 11.1203 11.3249 10.8397 6.59853 12.3343C5.84012 12.5748 5.03775 12.1281 4.80693 11.3379C4.57611 10.5477 5.00477 9.71166 5.76502 9.47116C11.1893 7.7552 20.2059 8.08733 25.905 11.6109C26.5865 12.0289 26.8136 12.947 26.4088 13.657Z" fill="#ADB7C2"/>
<path d="M100.73 12.2505C99.7899 12.2505 99.0498 13.0464 99.0498 14.0008C99.0498 14.9552 99.7807 15.7416 100.721 15.7416C101.66 15.7416 102.4 14.9456 102.4 13.9913C102.4 13.0369 101.668 12.2505 100.73 12.2505ZM100.721 15.5679C99.8705 15.5679 99.2257 14.8693 99.2257 14.0008C99.2257 13.1323 99.8723 12.4242 100.73 12.4242C101.58 12.4242 102.225 13.1228 102.225 13.9913C102.225 14.8597 101.576 15.5679 100.721 15.5679Z" fill="#ADB7C2"/>
<path d="M79.9224 7.35815C78.9808 7.35815 78.2188 8.15219 78.2188 9.13137C78.2188 10.1125 78.9808 10.9065 79.9224 10.9065C80.864 10.9065 81.6243 10.1125 81.6243 9.13137C81.6243 8.15219 80.8603 7.35815 79.9224 7.35815Z" fill="#ADB7C2"/>
<path d="M98.5327 12.2827H96.0614C95.9863 12.2827 95.9204 12.3323 95.8966 12.4048L93.3649 19.9386L90.5932 12.3991C90.5675 12.3285 90.5034 12.2827 90.432 12.2827H86.3761V11.941C86.3761 10.9351 86.7462 10.4866 87.576 10.4866C88.0706 10.4866 88.4682 10.5896 88.9152 10.7442C88.9701 10.7614 89.0269 10.7538 89.0709 10.7194C89.1167 10.6851 89.1423 10.6297 89.1423 10.5724V8.4881C89.1423 8.40794 89.0928 8.33731 89.0196 8.31441C88.5506 8.16935 87.9479 8.01855 87.0466 8.01855C84.8556 8.01855 83.6942 9.30504 83.6942 11.7387V12.2617H82.5529C82.4577 12.2617 82.3789 12.3438 82.3789 12.443V14.5808C82.3789 14.68 82.4577 14.7621 82.5529 14.7621H83.6942V23.2465C83.6942 23.3476 83.773 23.4278 83.8682 23.4278H86.2406C86.3377 23.4278 86.4146 23.3476 86.4146 23.2465V14.7602H88.6312L92.0276 23.2446C91.6429 24.134 91.2637 24.3134 90.7452 24.3134C90.3276 24.3134 89.8861 24.1837 89.4354 23.926C89.3933 23.9031 89.3438 23.8993 89.298 23.9126C89.2522 23.9298 89.2138 23.9641 89.1954 24.01L88.3912 25.85C88.3528 25.9378 88.3857 26.0389 88.4663 26.0848C89.3054 26.5581 90.0638 26.7604 90.9999 26.7604C92.753 26.7604 93.7221 25.9091 94.5758 23.6187L98.6939 12.5308C98.7159 12.4755 98.7085 12.4125 98.6756 12.3628C98.6426 12.3132 98.5895 12.2827 98.5327 12.2827Z" fill="#ADB7C2"/>
<path d="M101.101 14.1706C101.341 14.098 101.508 13.9148 101.506 13.6151C101.506 13.2486 101.239 13.033 100.83 13.033H100.05V14.8596H100.383V14.2278H100.748L101.173 14.8596H101.572L101.099 14.1706H101.101ZM100.817 13.9243H100.383V13.346H100.817C101.034 13.346 101.164 13.4472 101.164 13.6342C101.164 13.8136 101.034 13.9243 100.817 13.9243Z" fill="#ADB7C2"/>
<path d="M81.0969 12.2729H78.7209C78.6256 12.2729 78.5469 12.355 78.5469 12.4543V23.2463C78.5469 23.3475 78.6256 23.4276 78.7209 23.4276H81.095C81.1903 23.4276 81.2691 23.3475 81.2691 23.2463V12.4543C81.2709 12.3531 81.1921 12.2729 81.0969 12.2729Z" fill="#ADB7C2"/>
<path d="M64.7523 12.0459C61.552 12.0459 59.0459 14.6132 59.0459 17.8905C59.0459 21.1334 61.5355 23.672 64.7138 23.672C67.9252 23.672 70.4385 21.1143 70.4385 17.8485C70.4385 14.596 67.9398 12.0459 64.7523 12.0459ZM64.7523 21.162C63.0505 21.162 61.7663 19.7362 61.7663 17.8485C61.7663 15.9512 63.0065 14.575 64.7138 14.575C66.4267 14.575 67.7182 15.9989 67.7182 17.8905C67.7163 19.7858 66.4706 21.162 64.7523 21.162Z" fill="#ADB7C2"/>
<path d="M53.307 12.0459H53.3052C51.9679 12.0459 50.8724 12.5937 49.9656 13.7199V12.4544C49.9656 12.3551 49.8887 12.273 49.7934 12.273H47.4193C47.324 12.273 47.2471 12.3551 47.2471 12.4544V26.516C47.2471 26.6153 47.324 26.6974 47.4193 26.6974H49.7934C49.8887 26.6974 49.9656 26.6153 49.9656 26.516V22.0782C50.8706 23.1357 51.9679 23.6529 53.3052 23.6529C55.7893 23.6529 58.3064 21.6602 58.3064 17.8504C58.31 14.0386 55.7948 12.0459 53.307 12.0459ZM55.5457 17.8485C55.5457 19.7877 54.3989 21.1429 52.7575 21.1429C51.1344 21.1429 49.9088 19.7267 49.9088 17.8485C49.9088 15.9703 51.1344 14.554 52.7575 14.554C54.3714 14.5559 55.5457 15.9397 55.5457 17.8485Z" fill="#ADB7C2"/>
</svg>
