<svg width="147" height="28" viewBox="0 0 147 28" fill="none" xmlns="http://www.w3.org/2000/svg">
<path d="M15.8232 22.5875L18.9456 28.0002L25.1904 8.53527L24.3583 8.43091L15.8232 22.5875Z" fill="#ADB7C2"/>
<path d="M0 4.99536L13.6347 20.0883L14.1565 19.465L6.14042 4.99536H0Z" fill="#ADB7C2"/>
<path d="M9.6804 4.99527L26.3332 5.20399L29.354 0L9.47168 4.26755L9.6804 4.99527Z" fill="#ADB7C2"/>
<path d="M120.005 5.33105H117.108V22.641H120.005V5.33105Z" fill="#ADB7C2"/>
<path d="M145.571 13.3697C144.99 12.8141 143.952 12.5264 142.409 12.5264H131.496V7.69753H143.76V10.2079L146.222 9.50835V9.14731C146.222 7.72292 145.932 6.73289 145.354 6.17723C144.773 5.62158 143.712 5.33105 142.166 5.33105H132.943C131.375 5.33105 130.311 5.62158 129.73 6.1998C129.178 6.78084 128.91 7.84138 128.91 9.43501V10.9327C128.91 12.5264 129.175 13.6123 129.73 14.168C130.311 14.749 131.372 15.0367 132.943 15.0367H143.808V20.252H130.918V17.4511L128.238 18.0801V18.5624C128.238 20.1561 128.526 21.2166 129.084 21.7977C129.666 22.3787 130.723 22.6438 132.294 22.6438H142.409C143.98 22.6438 145.041 22.3787 145.596 21.7977C146.152 21.242 146.417 20.1561 146.417 18.5624V16.6078C146.417 15.0141 146.126 13.9508 145.571 13.3697Z" fill="#ADB7C2"/>
<path d="M110.105 5.33105H106.509L100.811 11.8974L94.7525 5.33105H90.5752L99.0962 13.7336L90.7219 22.641H94.3661L100.741 15.2765L107.62 22.641H111.772L102.501 13.4656L110.105 5.33105Z" fill="#ADB7C2"/>
<path d="M54.1445 14.8421C54.1445 15.9054 54.1698 16.7488 54.2178 17.3524C54.2657 17.956 54.3137 18.5342 54.4124 19.0927C54.0514 18.6583 53.7129 18.2465 53.3744 17.8601C53.0613 17.4991 52.7483 17.1832 52.4324 16.918L39.4915 5.33105H37.6807V22.641H40.3377V12.453C40.3377 11.6323 40.3123 10.9327 40.2643 10.3517C40.2389 9.7481 40.191 9.19244 40.1205 8.66217C40.4336 9.19244 40.9413 9.7481 41.5928 10.3517C41.6831 10.4476 41.779 10.5379 41.8805 10.6168L55.1824 22.6382H56.7986V5.33105H54.1416V14.8421H54.1445Z" fill="#ADB7C2"/>
<path d="M81.5714 5.33105H69.6206C68.0269 5.33105 66.9664 5.62158 66.3854 6.1998C65.8297 6.78084 65.542 7.86395 65.542 9.43501V18.5624C65.542 20.1307 65.8297 21.2166 66.3854 21.7977C66.9664 22.3533 68.0269 22.6438 69.6206 22.6438H81.5714C83.1425 22.6438 84.203 22.3787 84.7587 21.7977C85.3369 21.242 85.6049 20.1561 85.6049 18.5624V9.43501C85.6049 7.84138 85.3397 6.77802 84.7587 6.1998C84.203 5.62158 83.1397 5.33105 81.5714 5.33105ZM82.7532 20.252H68.4359V7.69753H82.7532V20.252Z" fill="#ADB7C2"/>
</svg>
