<svg width="99" height="32" viewBox="0 0 99 32" fill="none" xmlns="http://www.w3.org/2000/svg">
<path d="M12.5024 11.3006V14.6879C15.2324 14.7048 17.9625 14.6879 20.6926 14.6879C20.4951 16.3659 19.8861 18.0921 18.5716 19.2284C16.8936 20.8414 14.4933 21.5468 12.1894 21.4168C9.72174 21.3349 7.33835 20.1505 5.7735 18.2582C4.14606 16.3178 3.43826 13.6864 3.78253 11.1851C4.0955 8.65242 5.54239 6.28348 7.68021 4.88474C9.63748 3.55342 12.1533 3.10804 14.4885 3.60157C16.0678 3.89768 17.5147 4.73548 18.716 5.82125C19.4888 5.01475 20.2953 4.24195 21.085 3.43545C18.9496 1.28318 15.9715 0.0650015 12.9453 0H12.0738C9.60618 0.146855 7.18909 0.953356 5.19812 2.41709C3.12529 3.89768 1.5147 6.02107 0.674495 8.42131C-0.247564 11.0527 -0.230712 14.0138 0.756348 16.6284C1.81082 19.474 3.94864 21.8935 6.63056 23.3235C8.86709 24.5417 11.4672 25.0184 13.983 24.7704C16.5806 24.5561 19.1301 23.4704 20.9742 21.6287C23.738 19.031 24.5926 14.9335 24.0004 11.2982H12.5024V11.3006Z" fill="#ADB7C2"/>
<path d="M78.0312 24.3273C79.1989 24.361 80.3833 24.3441 81.5509 24.3441V0.854492H78.0312C78.0312 8.68356 78.0457 16.5126 78.0312 24.3273Z" fill="#ADB7C2"/>
<path d="M38.1438 10.345C36.3503 9.045 33.9982 8.58517 31.8267 8.99685C29.0966 9.47353 26.6795 11.4958 25.8224 14.144C24.9678 16.6117 25.3458 19.5054 26.9082 21.612C28.2901 23.5211 30.5603 24.6887 32.8956 24.8187C35.4451 24.9824 38.0596 23.8966 39.6557 21.8744C41.1363 20.064 41.6948 17.565 41.2519 15.2779C40.9076 13.3062 39.7713 11.4982 38.1438 10.345ZM37.2555 19.3441C36.6295 20.4949 35.4956 21.3664 34.1956 21.5975C32.7969 21.8768 31.285 21.4001 30.2811 20.3793C28.5212 18.6026 28.4225 15.4946 30.0186 13.5855C30.6109 12.8608 31.4342 12.3529 32.3202 12.1217C33.7358 11.7606 35.2982 12.1699 36.3671 13.1569C38.0283 14.6881 38.3413 17.3869 37.2555 19.3441Z" fill="#ADB7C2"/>
<path d="M56.3174 10.9541C54.4589 9.21107 51.7457 8.52013 49.2612 8.9968C46.5793 9.45663 44.2127 11.4139 43.3075 13.9803C42.4023 16.4961 42.749 19.4572 44.3427 21.6119C45.7583 23.5692 48.1104 24.7536 50.4938 24.8187C52.9927 24.9342 55.5278 23.8484 57.0902 21.8743C59.6735 18.7518 59.3436 13.6673 56.3174 10.9541ZM54.7069 19.3441C54.0809 20.4948 52.9302 21.3519 51.647 21.5975C50.2001 21.8936 48.6377 21.3663 47.6337 20.2974C45.9389 18.5039 45.8739 15.4464 47.4532 13.571C48.0454 12.8632 48.8688 12.3528 49.7547 12.1241C51.1534 11.763 52.7159 12.1578 53.7848 13.1449C55.4628 14.6712 55.7758 17.37 54.7069 19.3441Z" fill="#ADB7C2"/>
<path d="M72.1735 10.6916C71.6631 10.2149 71.1383 9.73823 70.4955 9.45897C68.4564 8.4382 65.9406 8.76803 64.0483 9.9525C61.7612 11.3512 60.2493 13.932 60.1988 16.6139C60.1001 18.9829 61.1521 21.3663 62.9288 22.9143C64.6887 24.4599 67.2045 25.2495 69.4916 24.6091C70.5436 24.3636 71.4151 23.7039 72.1735 22.9648C72.2216 24.4936 72.2216 26.2053 71.2033 27.4548C70.2499 28.6729 68.5551 29.034 67.0913 28.7716C65.6276 28.5092 64.46 27.356 63.8846 26.0079C62.8638 26.4508 61.8286 26.8312 60.8416 27.3079C61.8286 29.66 64.0483 31.5186 66.5978 31.8965C68.9836 32.2576 71.6318 31.716 73.3579 29.9561C74.9372 28.36 75.4958 26.0416 75.5126 23.8532V9.34341C74.3932 9.32656 73.2929 9.34341 72.1903 9.32656C72.1735 9.78638 72.1903 10.2462 72.1735 10.6916ZM71.7305 19.5727C71.0901 20.7066 69.8888 21.53 68.5888 21.6624C67.2069 21.8093 65.7769 21.2194 64.8885 20.1481C63.3261 18.3377 63.3261 15.3958 64.8716 13.5517C65.512 12.7789 66.4509 12.2203 67.4549 12.0542C68.8199 11.8087 70.2668 12.3166 71.172 13.3542C72.6357 15.0347 72.8163 17.6492 71.7305 19.5727Z" fill="#ADB7C2"/>
<path d="M93.9514 20.7739C92.75 21.7273 91.0407 21.9079 89.6083 21.3999C88.5875 21.0556 87.8316 20.1986 87.3381 19.2621C90.9083 17.7815 94.4593 16.3177 98.0296 14.8371C97.2568 12.485 95.7281 10.198 93.3254 9.29516C90.7928 8.32495 87.7497 8.95089 85.7756 10.7926C82.6989 13.6382 82.4364 18.9346 85.1665 22.0932C86.8277 24.1011 89.5577 25.0857 92.1241 24.7751C94.4425 24.5609 96.5972 23.2127 97.8804 21.2891C96.9752 20.68 96.0699 20.0878 95.1671 19.4787C94.806 19.9361 94.428 20.4128 93.9514 20.7739ZM87.5379 13.8332C88.4094 12.55 90.0368 11.7123 91.6017 11.9915C92.5719 12.1384 93.5252 12.6993 93.9201 13.619C91.5343 14.6229 89.1509 15.6099 86.7651 16.597C86.7482 15.6244 86.9769 14.6397 87.5379 13.8332Z" fill="#ADB7C2"/>
</svg>
