<svg width="107" height="32" viewBox="0 0 107 32" fill="none" xmlns="http://www.w3.org/2000/svg">
<g clip-path="url(#clip0_1_6944)">
<path d="M65.279 23.5649C58.3169 26.5089 50.751 27.9297 43.9046 27.9297C33.7183 27.9297 23.8789 25.1649 15.9148 20.5441C15.2083 20.1345 14.7202 20.8385 15.2726 21.3633C22.6843 28.0065 32.4081 31.9873 43.2623 31.9873C51.008 31.9873 59.9868 29.5681 66.1653 25.0113C67.1801 24.2817 66.3195 23.1553 65.279 23.5649Z" fill="#ADB7C2"/>
<path d="M61.3876 21.0303C60.8224 21.4015 60.938 21.9263 61.5417 21.8495C63.5199 21.5935 67.9772 21.0687 68.7607 22.0671C69.5443 23.1167 67.8616 27.2511 67.1165 29.1199C66.8982 29.6831 67.3734 29.9007 67.9001 29.4911C71.227 26.7263 72.0876 20.9151 71.4197 20.0959C70.7389 19.2767 64.9329 18.5343 61.3876 21.0303Z" fill="#ADB7C2"/>
<path d="M18.7922 18.5342H22.0806C22.4531 18.5342 22.7228 18.2782 22.7485 17.971V9.02382C22.7485 7.05262 22.6715 4.36462 25.035 4.36462C27.36 4.36462 27.0517 7.16782 27.0517 9.02382V17.971C27.0517 18.2654 27.3086 18.5342 27.6554 18.5726H30.9438C31.2777 18.5726 31.586 18.3166 31.586 17.971V9.02382C31.586 8.05102 31.5475 6.64302 31.8815 5.78542C32.2154 4.92782 33.0761 4.40302 33.8596 4.40302C34.8359 4.40302 35.5424 4.73582 35.8121 5.86222C35.9662 6.52782 35.8892 8.31982 35.8892 9.02382V17.971C35.8892 18.2654 36.1461 18.5342 36.4929 18.5726H39.7427C40.0767 18.5726 40.385 18.3166 40.385 17.971V7.30862C40.385 5.47822 40.6034 3.43022 39.5629 2.00942C38.6252 0.703825 37.1352 0.140625 35.7479 0.140625C33.7954 0.140625 31.9714 1.15182 31.1878 3.27662C30.2887 1.15182 28.9785 0.140625 26.9232 0.140625C24.9065 0.140625 23.3651 1.15182 22.5815 3.27662H22.5045V1.07502C22.4659 0.780625 22.2476 0.511825 21.9007 0.511825H18.8307C18.4968 0.511825 18.1885 0.767825 18.1885 1.11342V17.971C18.227 18.2782 18.4839 18.4958 18.7922 18.5342Z" fill="#ADB7C2"/>
<path d="M52.9994 7.1296C51.0854 7.3472 48.5806 7.5008 46.7823 8.2816C44.727 9.1776 43.2627 10.9696 43.2627 13.6576C43.2627 17.0496 45.4335 18.7648 48.2081 18.7648C50.5331 18.7648 51.8433 18.2016 53.6288 16.384C54.2325 17.2416 54.4509 17.6896 55.5427 18.5856C55.7996 18.7392 56.1079 18.7008 56.3263 18.5088C56.9942 17.9456 58.2017 16.9088 58.9082 16.3456C59.1651 16.1536 59.1265 15.7824 58.9082 15.488C58.3173 14.6176 57.675 13.952 57.675 12.416V7.3088C57.675 5.1456 57.8292 3.136 56.2107 1.6384C54.939 0.4096 52.8452 0 51.2396 0C48.0925 0 44.6114 1.152 43.8664 5.0304C43.7894 5.44 44.0848 5.632 44.3545 5.696L47.5273 6.0416C47.8227 6.0416 48.0154 5.7472 48.0925 5.44C48.3494 4.096 49.4798 3.4688 50.7514 3.4688C51.4194 3.4688 52.1773 3.7248 52.5883 4.3264C53.0764 4.992 52.9994 5.9264 52.9994 6.7072V7.1296ZM52.3956 13.9904C51.869 14.9248 51.0469 15.488 50.1092 15.488C48.8375 15.488 48.0925 14.5152 48.0925 13.1072C48.0925 10.304 50.5973 9.792 52.9994 9.792V10.496C52.9994 11.7504 53.0379 12.8256 52.3956 13.9904Z" fill="#ADB7C2"/>
<path d="M15.6455 16.3328C15.9024 16.1408 15.8638 15.7696 15.6455 15.4752C15.0417 14.6176 14.4123 13.952 14.4123 12.416V7.3088C14.4123 5.1456 14.5665 3.136 12.948 1.6384C11.6763 0.4096 9.58253 0 7.97688 0C4.8298 0 1.34875 1.152 0.603725 5.0304C0.526654 5.44 0.822094 5.632 1.079 5.7088L4.26461 6.0416C4.56005 6.0416 4.75273 5.7472 4.8298 5.44C5.08671 4.096 6.21708 3.4688 7.48876 3.4688C8.15671 3.4688 8.91458 3.7248 9.32563 4.3264C9.8009 4.992 9.73667 5.9264 9.73667 6.7072V7.1168C7.82274 7.3344 5.31792 7.488 3.51959 8.2688C1.46435 9.1776 0 10.9696 0 13.6448C0 17.0368 2.17084 18.752 4.94541 18.752C7.27039 18.752 8.5806 18.1888 10.3661 16.3712C10.9698 17.2288 11.1882 17.6768 12.28 18.5728C12.5369 18.7264 12.8452 18.688 13.0636 18.496C13.7315 17.9456 14.939 16.896 15.6455 16.3328ZM9.17148 13.9904C8.64483 14.9248 7.82274 15.488 6.88504 15.488C5.61336 15.488 4.86834 14.5152 4.86834 13.1072C4.86834 10.304 7.37315 9.792 9.77521 9.792V10.496C9.76236 11.7504 9.8009 12.8256 9.17148 13.9904Z" fill="#ADB7C2"/>
<path d="M73.4746 13.9519C71.5992 12.9023 69.3899 12.6079 67.2961 12.6463L72.9094 4.65913C73.4361 3.91673 73.7315 3.46873 73.7315 3.13593V1.08793C73.7315 0.755128 73.4361 0.486328 73.0893 0.486328H62.2351C61.9011 0.486328 61.6314 0.703928 61.6314 1.08793V3.50713C61.6314 3.83993 61.9268 4.10873 62.2736 4.10873H67.9255L61.413 13.4015C61.002 14.0031 61.002 14.6687 61.002 15.0399V17.4975C61.002 17.8687 61.413 18.2399 61.7855 18.0607C65.4592 16.0895 69.9037 16.2687 73.2434 18.0223C73.6545 18.2399 74.027 17.8303 74.027 17.4591V14.8863C73.9884 14.5407 73.8857 14.1695 73.4746 13.9519Z" fill="#ADB7C2"/>
<path d="M105.806 2.12476C104.868 0.665564 103.417 0.153564 101.952 0.153564C99.6659 0.153564 98.3943 1.22876 97.4566 3.54556H97.3795V0.972764C97.3024 0.716764 97.084 0.486364 96.7757 0.486364H93.7057C93.3718 0.486364 93.102 0.742364 93.0635 1.04956V17.9456C93.0635 18.24 93.3204 18.5088 93.6672 18.5472H96.9556C97.2896 18.5472 97.5978 18.2912 97.6235 17.9456V8.84476C97.6235 7.69276 97.7006 6.68156 98.1502 5.63196C98.5227 4.81276 99.2677 4.28796 100.064 4.28796C102.351 4.28796 102.119 6.97596 102.119 8.83196V18.0096C102.158 18.2656 102.415 18.496 102.723 18.5344H106.011C106.345 18.5344 106.615 18.3168 106.654 18.0096V7.38556C106.667 5.74716 106.667 3.46876 105.806 2.12476Z" fill="#ADB7C2"/>
<path d="M83.0957 0.153564C78.3044 0.153564 75.6455 4.26236 75.684 9.51036C75.684 14.7328 78.3044 18.9056 83.0957 18.9056C87.7328 18.9056 90.6615 14.7968 90.6615 9.65116C90.6487 4.32636 87.9897 0.153564 83.0957 0.153564ZM83.0572 15.4368C80.4753 15.4368 80.5138 11.0336 80.5138 8.98556C80.5138 6.93756 80.668 3.60956 83.0957 3.60956C84.149 3.60956 84.894 4.05756 85.2665 5.24796C85.6776 6.59196 85.7547 8.30716 85.7547 9.72796C85.7418 11.8912 85.6005 15.4368 83.0572 15.4368Z" fill="#ADB7C2"/>
</g>
<defs>
<clipPath id="clip0_1_6944">
<rect width="106.667" height="32" fill="white"/>
</clipPath>
</defs>
</svg>
