<svg width="103" height="32" viewBox="0 0 103 32" fill="none" xmlns="http://www.w3.org/2000/svg">
<path d="M45.3956 12.237V12.749C45.3956 12.749 44.3985 11.469 42.2891 11.469C38.7991 11.469 36.0889 14.1314 36.0889 17.805C36.0889 21.453 38.7735 24.141 42.2891 24.141C44.4368 24.141 45.3956 22.8226 45.3956 22.8226V23.373C45.3956 23.629 45.5874 23.821 45.8431 23.821H48.4382V11.789H45.8431C45.5874 11.789 45.3956 12.0066 45.3956 12.237ZM45.3956 19.9554C44.9226 20.6594 43.951 21.2738 42.8005 21.2738C40.755 21.2738 39.1826 19.9938 39.1826 17.8178C39.1826 15.6418 40.755 14.3618 42.8005 14.3618C43.9255 14.3618 44.9482 15.0018 45.3956 15.6802V19.9554Z" fill="#ADB7C2"/>
<path d="M53.4236 11.7888H50.3555V23.8336H53.4236V11.7888Z" fill="#ADB7C2"/>
<path d="M28.7893 21.5937C28.5336 21.0177 28.2779 20.4673 28.0478 19.9553L28.0095 19.9297C25.7978 15.1297 23.4328 10.2529 20.9399 5.45291L20.8632 5.2481C20.5948 4.7489 20.3391 4.2497 20.0962 3.7377C19.7766 3.1617 19.457 2.5473 18.9456 1.9713C17.9229 0.691305 16.4527 -0.0126953 14.8803 -0.0126953C13.2823 -0.0126953 11.8377 0.691305 10.7894 1.9073C10.3036 2.4833 9.95845 3.0977 9.63885 3.6737C9.38317 4.1729 9.12749 4.68491 8.87181 5.1841L8.76953 5.3761C6.30222 10.1761 3.91161 15.0529 1.69997 19.8529L1.66162 19.9297C1.44429 20.4417 1.17582 20.9921 0.920145 21.5681C0.753952 21.9265 0.600544 22.3105 0.447136 22.7201C0.025263 23.9105 -0.102577 25.0241 0.0636151 26.1761C0.421568 28.5825 2.01957 30.5921 4.21842 31.4881C5.06217 31.8465 5.9187 32.0001 6.81358 32.0001C7.06926 32.0001 7.38886 31.9745 7.64454 31.9361C8.70561 31.8081 9.79225 31.4625 10.8405 30.8481C12.1573 30.1057 13.3973 29.0561 14.8036 27.5201C16.2098 29.0561 17.4882 30.1185 18.7666 30.8481C19.8277 31.4625 20.9144 31.8081 21.9626 31.9361C22.2183 31.9745 22.5379 32.0001 22.7936 32.0001C23.6885 32.0001 24.5834 31.8465 25.3888 31.4881C27.626 30.5921 29.1984 28.5441 29.5436 26.1761C29.7992 25.0497 29.6714 23.9361 29.2495 22.7457C29.1089 22.3617 28.9555 21.9393 28.7893 21.5937ZM14.8419 24.4097C13.1161 22.2337 11.9911 20.1857 11.6076 18.4577C11.4414 17.7153 11.4158 17.0753 11.5181 16.4993C11.582 15.9873 11.7738 15.5393 12.0295 15.1553C12.6431 14.2849 13.6658 13.7473 14.8419 13.7473C16.0309 13.7473 17.0791 14.2593 17.6544 15.1553C17.9101 15.5393 18.1019 15.9873 18.1658 16.4993C18.2553 17.0753 18.2297 17.7537 18.0635 18.4577C17.6928 20.1473 16.5678 22.1953 14.8419 24.4097ZM27.6132 25.9201C27.3831 27.5841 26.2709 29.0305 24.6984 29.6705C23.9314 29.9905 23.1004 30.0929 22.2695 29.9905C21.4641 29.8881 20.6715 29.6321 19.8405 29.1585C18.6899 28.5185 17.5394 27.5201 16.1971 26.0481C18.3064 23.4497 19.5848 21.0817 20.0706 18.9697C20.3007 17.9713 20.3263 17.0753 20.224 16.2433C20.0962 15.4369 19.8021 14.7073 19.3547 14.0673C18.3575 12.6209 16.6956 11.7889 14.8419 11.7889C12.9883 11.7889 11.3263 12.6593 10.3292 14.0673C9.88174 14.7073 9.58771 15.4497 9.45987 16.2433C9.33203 17.0753 9.3576 18.0097 9.61328 18.9697C10.0991 21.0817 11.403 23.4881 13.4868 26.0865C12.1701 27.5585 10.994 28.5569 9.84339 29.1969C9.01243 29.6833 8.20704 29.9393 7.41443 30.0289C6.54511 30.1313 5.71415 30.0033 4.98546 29.7089C3.41303 29.0689 2.30082 27.6225 2.07071 25.9585C1.98122 25.1521 2.03235 24.3585 2.36474 23.4625C2.45423 23.1425 2.62042 22.8225 2.78661 22.4385C3.01672 21.9265 3.25962 21.3761 3.52808 20.8385L3.56644 20.7745C5.77807 16.0001 8.14312 11.1361 10.6104 6.3873L10.7127 6.1953C10.9684 5.7217 11.2241 5.1969 11.4797 4.7233C11.7354 4.2113 12.0295 3.7249 12.3746 3.3153C13.0522 2.5473 13.9471 2.1249 14.9314 2.1249C15.9286 2.1249 16.8235 2.5473 17.4882 3.3153C17.8462 3.7377 18.1274 4.2113 18.3831 4.7233C18.6388 5.2097 18.8945 5.7217 19.1502 6.1953L19.2524 6.3873C21.6814 11.1489 24.0081 15.9489 26.2581 20.8001V20.8257C26.5138 21.3377 26.7439 21.9137 26.9995 22.4257C27.1657 22.8097 27.3191 23.1297 27.4214 23.4497C27.6387 24.2817 27.741 25.0753 27.6132 25.9201Z" fill="#ADB7C2"/>
<path d="M96.2382 11.4689C94.1288 11.4689 93.1316 12.7489 93.1316 12.7489V5.99048H90.0635V23.8337H92.6586C92.9143 23.8337 93.1061 23.6033 93.1061 23.3857V22.8353C93.1061 22.8353 94.1032 24.1537 96.2126 24.1537C99.7026 24.1537 102.413 21.4657 102.413 17.8177C102.4 14.1569 99.6898 11.4689 96.2382 11.4689ZM95.714 21.2353C94.5251 21.2353 93.6047 20.6209 93.1189 19.9169V15.6289C93.6047 14.9889 94.6274 14.3105 95.714 14.3105C97.7595 14.3105 99.3319 15.5905 99.3319 17.7665C99.3319 19.9425 97.7723 21.2353 95.714 21.2353Z" fill="#ADB7C2"/>
<path d="M51.8904 5.96484C50.7015 5.96484 49.8066 6.89924 49.8066 8.05124C49.8066 9.20325 50.7399 10.1376 51.8904 10.1376C53.041 10.1376 53.9742 9.20325 53.9742 8.05124C53.9742 6.92484 53.0793 5.99044 51.8904 5.96484Z" fill="#ADB7C2"/>
<path d="M86.9565 12.621C86.0617 11.853 84.9367 11.469 83.5943 11.469C82.4054 11.469 81.2293 11.8274 80.3344 12.749V12.237C80.3344 12.0066 80.1427 11.789 79.887 11.789H77.458V23.8338H80.5262V15.437C81.1398 14.733 82.0986 14.2466 83.0191 14.2466C84.7449 14.2466 85.3841 15.053 85.3841 17.037V23.8594H88.4523V16.6786C88.4523 14.669 88.0432 13.517 86.9565 12.621Z" fill="#ADB7C2"/>
<path d="M58.3844 12.7489V12.2369C58.3844 12.0065 58.1926 11.7889 57.937 11.7889H55.3418V23.8593H58.41V15.4369C60.008 13.6065 62.5648 14.4769 62.5648 14.4769V11.6225C62.5648 11.6225 62.079 11.4561 61.1585 11.4561C60.2125 11.4689 58.9597 12.0705 58.3844 12.7489Z" fill="#ADB7C2"/>
<path d="M69.9921 11.4689C67.8827 11.4689 66.8855 12.7489 66.8855 12.7489V5.99048H63.8174V23.8337H66.4125C66.6682 23.8337 66.86 23.6033 66.86 23.3857V22.8353C66.86 22.8353 67.8571 24.1537 69.9665 24.1537C73.4565 24.1537 76.1667 21.4657 76.1667 17.8177C76.2051 14.1569 73.4821 11.4689 69.9921 11.4689ZM69.4807 21.2353C68.2918 21.2353 67.3713 20.6209 66.8855 19.9169V15.6289C67.3713 14.9889 68.3941 14.3105 69.4807 14.3105C71.5261 14.3105 73.0986 15.5905 73.0986 17.7665C73.0986 19.9425 71.5389 21.2353 69.4807 21.2353Z" fill="#ADB7C2"/>
</svg>
