<svg width="81" height="32" viewBox="0 0 81 32" fill="none" xmlns="http://www.w3.org/2000/svg">
<g clip-path="url(#clip0_1_6919)">
<path fill-rule="evenodd" clip-rule="evenodd" d="M68.1747 8.78019C68.3176 9.16416 68.3666 9.49911 68.4136 9.74011C68.4626 9.97907 68.4626 10.2201 68.5096 10.4121C68.5729 10.1751 68.6689 9.94843 68.7976 9.74011C68.8936 9.50115 69.0856 9.16416 69.3245 8.78019L75.421 0H80.1226L70.4315 12.8568L73.8382 20.2441H69.1836L68.0317 16.7414C67.9357 16.5004 67.8887 16.2145 67.7927 15.9265C67.7927 15.6855 67.7437 15.3975 67.7437 15.1116C67.6008 15.3995 67.5048 15.6875 67.3598 15.9265C67.2168 16.2145 67.0718 16.5024 66.9288 16.7414L64.627 20.2441H60.0215L65.8749 12.8568L63.0442 6.42737H67.5068L68.1747 8.78019Z" fill="#ADB7C2"/>
<path fill-rule="evenodd" clip-rule="evenodd" d="M61.4103 6.42931L59.0595 20.246H55.2688L55.6528 17.9912C54.9809 18.9511 54.2129 19.6701 53.494 20.103C52.7261 20.534 51.9112 20.775 50.9512 20.775C49.4154 20.775 48.2655 20.103 47.5936 18.7592C46.8726 17.4153 46.7296 15.5914 47.1136 13.3366C47.4976 11.0819 48.2655 9.30702 49.4644 7.96314C50.6633 6.66827 52.1031 5.99633 53.782 5.99633C54.6459 5.99633 55.3648 6.18831 55.9408 6.66827C56.4677 7.09921 56.9007 7.77115 57.2356 8.6841L57.6196 6.42931H61.4103ZM56.6127 13.3366C56.8047 12.2338 56.7087 11.3698 56.3247 10.7449C55.9408 10.1219 55.3178 9.83396 54.5009 9.83396C53.637 9.83396 52.918 10.1219 52.3421 10.7449C51.7661 11.3698 51.3822 12.2317 51.1902 13.3366C50.9982 14.3925 51.0942 15.2565 51.4782 15.8794C51.8621 16.4554 52.4851 16.7903 53.3 16.7903C54.1169 16.7903 54.8358 16.4554 55.4588 15.8794C56.0368 15.2565 56.4207 14.3925 56.6127 13.3366ZM35.9357 20.246H40.0143L41.0212 14.5355C41.2132 13.1916 41.6931 12.1847 42.3651 11.4168C43.037 10.6979 43.8519 10.3609 44.8588 10.3609C45.0998 10.3609 45.2918 10.3609 45.5308 10.4079C45.7697 10.4548 46.0107 10.5508 46.2497 10.6468L47.4016 6.18423C47.2096 6.18423 47.0666 6.13725 46.8746 6.13725H46.3947C45.4348 6.13725 44.5239 6.42523 43.709 7.00118C42.941 7.6241 42.2221 8.48803 41.6462 9.68691L42.1731 6.42523H38.2864L35.9357 20.246ZM26.5795 20.246H31.1851L33.8238 4.12551H68.6546L70.9094 0.191884H11.6579L10.843 4.12551H29.1693L26.5795 20.246ZM8.34925 20.246L10.7 6.42931H14.4907L14.0087 9.21103C14.7276 8.10815 15.4955 7.29324 16.3125 6.76426C17.1274 6.23733 18.0403 5.99633 19.0472 5.99633C19.8152 5.99633 20.4381 6.13929 20.9671 6.42931C21.543 6.71729 21.927 7.10125 22.215 7.6772C22.4539 8.10815 22.5499 8.6841 22.5989 9.35604C22.5989 10.028 22.5029 11.0349 22.264 12.3297L20.9201 20.246H16.7945L18.0424 12.8587C18.2344 11.7558 18.2344 10.9389 17.9954 10.4589C17.8034 9.93199 17.3235 9.69099 16.6515 9.69099C15.7876 9.69099 15.1157 10.075 14.5887 10.7939C14.0618 11.5618 13.6778 12.7607 13.3898 14.4395L12.3829 20.244L8.34925 20.246ZM3.69466 4.12551L4.55859 0.046875H8.6842L7.86929 4.12551H3.69466ZM1.05591 20.246L3.40669 6.42931H7.5323L5.18152 20.246H1.05591ZM0.336993 31.042L1.10493 30.993C1.10493 31.185 1.1519 31.281 1.29691 31.377C1.3929 31.473 1.58489 31.5199 1.82384 31.5199C2.0628 31.5199 2.25479 31.473 2.3998 31.424C2.54276 31.328 2.59178 31.232 2.63875 31.136C2.63875 31.089 2.63875 31.04 2.59178 30.993C2.5448 30.946 2.44881 30.897 2.35282 30.85C2.25683 30.85 2.06485 30.8031 1.77687 30.754C1.3929 30.6581 1.10493 30.5621 0.961961 30.4661C0.769977 30.3231 0.723002 30.1311 0.769977 29.9391C0.816952 29.7962 0.912944 29.6512 1.05795 29.5552C1.15394 29.4122 1.34593 29.3162 1.58489 29.2672C1.77687 29.1712 2.06485 29.1712 2.35282 29.1712C2.78376 29.1712 3.12076 29.2182 3.35971 29.3632C3.5517 29.5552 3.59867 29.7472 3.5517 29.9882H2.78376C2.78376 29.8452 2.78376 29.7472 2.68777 29.7002C2.59178 29.6512 2.3998 29.6042 2.20781 29.6042C1.96885 29.6042 1.82384 29.6512 1.67884 29.7002C1.59306 29.7369 1.52566 29.8064 1.48685 29.8922C1.48685 29.9391 1.48685 29.9882 1.58284 30.0351C1.67884 30.1311 1.87082 30.1781 2.20781 30.2271C2.59178 30.2761 2.83074 30.3721 2.97575 30.4191C3.16773 30.5151 3.26372 30.5621 3.35971 30.7071C3.40669 30.8031 3.40669 30.9481 3.40669 31.138C3.35971 31.281 3.26372 31.426 3.11871 31.569C2.92673 31.714 2.73475 31.81 2.54276 31.8569C2.30176 31.9529 2.01379 31.9999 1.67884 31.9999C1.19888 31.9999 0.863926 31.9039 0.622926 31.7589C0.432984 31.5669 0.336993 31.328 0.336993 31.042ZM4.50957 29.2182H5.27751L4.89354 30.705C4.84657 30.897 4.79755 31.089 4.79755 31.136C4.79755 31.232 4.84452 31.328 4.98953 31.424C5.08552 31.473 5.23053 31.5199 5.46949 31.5199C5.66148 31.5199 5.85346 31.473 5.94945 31.424C6.09242 31.328 6.19045 31.281 6.23743 31.185C6.2844 31.089 6.33342 30.944 6.38039 30.705L6.71534 29.2182H7.48328L7.14833 30.656C7.05234 30.944 7.00536 31.1829 6.90733 31.328C6.86035 31.4709 6.71534 31.5669 6.61935 31.6629C6.47639 31.7589 6.2844 31.8549 6.09242 31.9039C5.90043 31.9509 5.66148 31.9999 5.3735 31.9999C5.09778 32.004 4.8241 31.9713 4.55859 31.9039C4.41562 31.8079 4.27062 31.7609 4.17462 31.6629C4.07863 31.5669 4.07863 31.4709 4.03166 31.328C4.03166 31.185 4.07863 30.944 4.12765 30.656L4.50957 29.2182ZM7.62829 31.042L8.39622 30.993C8.39622 31.185 8.4432 31.281 8.58821 31.377C8.6842 31.473 8.87618 31.5199 9.11514 31.5199C9.3541 31.5199 9.54608 31.473 9.69109 31.424C9.83406 31.328 9.88307 31.232 9.93005 31.136C9.93005 31.089 9.93005 31.04 9.88307 30.993C9.8361 30.946 9.78708 30.897 9.64207 30.85C9.54608 30.85 9.3541 30.8031 9.06612 30.754C8.68215 30.6581 8.39418 30.5621 8.29819 30.4661C8.05719 30.3231 8.01021 30.1311 8.05719 29.9391C8.10416 29.7962 8.20015 29.6512 8.29819 29.5552C8.44115 29.4122 8.63314 29.3162 8.87414 29.2672C9.06612 29.1712 9.30508 29.1712 9.64207 29.1712C10.0751 29.1712 10.41 29.2182 10.649 29.3632C10.841 29.5552 10.8879 29.7472 10.841 29.9882H10.073C10.073 29.8452 10.026 29.7472 9.97702 29.7002C9.88103 29.6512 9.68905 29.6042 9.49706 29.6042C9.25811 29.6042 9.1131 29.6512 8.96809 29.7002C8.88231 29.7369 8.81287 29.8064 8.7761 29.8922C8.7761 29.9391 8.7761 29.9882 8.8721 30.0351C8.96809 30.1311 9.16007 30.1781 9.49706 30.2271C9.88103 30.2761 10.12 30.3721 10.312 30.4191C10.4549 30.5151 10.5509 30.5621 10.6469 30.7071C10.6939 30.8031 10.7429 30.9481 10.6939 31.138C10.6469 31.281 10.5509 31.426 10.4059 31.569C10.2139 31.714 10.022 31.81 9.82997 31.8569C9.59101 31.9529 9.30304 31.9999 8.96605 31.9999C8.48609 31.9999 8.15114 31.9039 7.91014 31.7589C7.72428 31.5669 7.62829 31.328 7.62829 31.042ZM11.131 31.9529L11.8029 29.2182H13.0018C13.4817 29.2182 13.7697 29.2182 13.9127 29.2652C14.1047 29.2652 14.2497 29.3611 14.3926 29.5062C14.4886 29.6491 14.5356 29.8431 14.4886 30.0331C14.4498 30.1965 14.3661 30.3456 14.2497 30.464C14.1067 30.56 14.0087 30.656 13.8657 30.752C13.7227 30.801 13.5777 30.848 13.4348 30.848C13.2428 30.895 12.9548 30.895 12.6199 30.895H12.1399L11.8989 31.9509L11.131 31.9529ZM12.4258 29.6491L12.2339 30.464H12.6648C12.9528 30.464 13.1938 30.4171 13.2898 30.4171C13.3858 30.3701 13.4817 30.3211 13.5308 30.2741C13.6268 30.1781 13.6737 30.1311 13.6737 30.0331C13.7207 29.9371 13.6737 29.8901 13.6268 29.7921C13.5798 29.7451 13.4838 29.6961 13.3388 29.6961C13.2918 29.6471 13.0978 29.6471 12.8098 29.6471L12.4258 29.6491ZM14.6336 31.9529L15.3056 29.2182H18.0873L17.9913 29.6491H15.9285L15.7856 30.2741H17.7054L17.5624 30.705H15.6916L15.4996 31.473H17.6114L17.4685 31.9529H14.6336ZM18.1363 31.9529L18.8083 29.2182H19.5272L20.6301 31.042L21.11 29.2182H21.782L21.11 31.9529H20.3421L19.2862 30.1781L18.8532 31.9529H18.1363ZM21.9249 31.042L22.6929 30.993C22.6929 31.185 22.7399 31.281 22.8849 31.377C22.9809 31.473 23.1728 31.5199 23.4118 31.5199C23.6079 31.5199 23.8019 31.4873 23.9877 31.424C24.1307 31.328 24.1797 31.232 24.2267 31.136C24.2267 31.089 24.2267 31.04 24.1797 30.993C24.1328 30.946 24.0837 30.897 23.9408 30.85C23.8448 30.85 23.6528 30.8031 23.3648 30.754C22.9809 30.6581 22.6929 30.5621 22.5969 30.4661C22.3559 30.3231 22.3089 30.1311 22.3559 29.9391C22.4069 29.7962 22.4886 29.6634 22.5969 29.5552C22.7399 29.4122 22.9318 29.3162 23.1728 29.2672C23.3648 29.1712 23.6528 29.1712 23.9408 29.1712C24.3717 29.1712 24.7087 29.2182 24.9477 29.3632C25.1396 29.5552 25.1866 29.7472 25.1396 29.9882H24.3717C24.4187 29.8452 24.3247 29.7472 24.2757 29.7002C24.1797 29.6512 24.0347 29.6042 23.7958 29.6042C23.5548 29.6042 23.4118 29.6512 23.2688 29.7002C23.183 29.7369 23.1136 29.8064 23.0768 29.8922C23.0768 29.9391 23.1238 29.9882 23.1728 30.0351C23.2688 30.1311 23.4608 30.1781 23.8448 30.2271C24.1818 30.2761 24.4207 30.3721 24.6127 30.4191C24.7557 30.5151 24.8517 30.5621 24.9477 30.7071C24.9946 30.8031 25.0437 30.9481 24.9946 31.138C24.9477 31.281 24.8517 31.426 24.7067 31.569C24.5147 31.714 24.3227 31.81 24.1307 31.8569C23.8918 31.9529 23.6038 31.9999 23.2668 31.9999C22.7868 31.9999 22.4519 31.9039 22.2109 31.7589C22.0209 31.5669 21.9249 31.328 21.9249 31.042ZM25.3806 31.9529L26.0526 29.2182H26.8205L26.1486 31.9529H25.3806ZM27.0595 30.56C27.1065 30.319 27.2515 30.0801 27.3965 29.8881C27.5394 29.7451 27.6845 29.6001 27.8274 29.5041C28.0194 29.4081 28.2114 29.3121 28.4034 29.2631C28.6423 29.2161 28.9303 29.1671 29.2183 29.1671C29.7942 29.1671 30.1782 29.2631 30.4662 29.5511C30.7541 29.7921 30.8032 30.127 30.7072 30.56C30.6112 30.991 30.3722 31.328 29.9883 31.6159C29.5573 31.8569 29.1243 31.9999 28.5484 31.9999C27.9724 31.9999 27.5885 31.8569 27.3005 31.6159C27.0595 31.377 26.9635 31.042 27.0595 30.56ZM27.8274 30.56C27.7804 30.895 27.8274 31.087 27.9704 31.2789C28.1134 31.4219 28.3544 31.5199 28.6423 31.5199C28.9773 31.5199 29.2183 31.4239 29.4572 31.2789C29.6982 31.087 29.8412 30.895 29.9372 30.56C29.9842 30.272 29.9842 30.0331 29.8412 29.8411C29.6492 29.6981 29.4572 29.6491 29.1223 29.6491C28.7873 29.6491 28.5463 29.6981 28.3074 29.8411C28.0664 30.0331 27.9234 30.2741 27.8274 30.56ZM30.9931 31.9529L31.665 29.2182H32.384L33.4869 31.042L33.9178 29.2182H34.6367L33.9648 31.9529H33.1968L32.0939 30.1781L31.663 31.9529H30.9931ZM37.0386 31.9529L37.6145 29.6512H36.5116L36.6076 29.2202H39.5813L39.4853 29.6512H38.3824L37.8065 31.9529H37.0386ZM39.4363 31.9529L40.1082 29.2182H42.892L42.749 29.6491H40.7332L40.5882 30.2741H42.459L42.363 30.705H40.4922L40.3002 31.473H42.4121L42.2691 31.9529H39.4363ZM45.5777 30.944L46.2497 31.087C46.1067 31.3749 45.8187 31.6139 45.5308 31.7589C45.2428 31.9019 44.9058 31.9999 44.4749 31.9999C43.9949 31.9999 43.6109 31.8569 43.372 31.6159C43.084 31.3749 43.037 31.04 43.131 30.607C43.227 30.127 43.468 29.7921 43.8519 29.5511C44.2359 29.2631 44.7159 29.1671 45.2428 29.1671C45.6758 29.1671 46.0577 29.2631 46.2987 29.4551C46.4417 29.5511 46.4907 29.7431 46.5397 29.9351L45.7718 30.078C45.7718 29.9351 45.6758 29.8391 45.5798 29.7431C45.4368 29.6471 45.2918 29.6471 45.0998 29.6471C44.8118 29.6471 44.5729 29.6961 44.3319 29.8391C44.1399 29.982 43.9949 30.223 43.8989 30.558C43.8519 30.8929 43.8519 31.1339 43.9949 31.2769C44.1379 31.4199 44.3319 31.5179 44.6199 31.5179C44.8118 31.5179 45.0038 31.4709 45.1468 31.3749C45.3388 31.281 45.4817 31.136 45.5777 30.944ZM46.7296 31.9529L47.4016 29.2182H48.1695L47.8815 30.2741H49.3684L49.6564 29.2182H50.3773L49.7054 31.9529H48.9865L49.2744 30.754H47.7876L47.4996 31.9529H46.7296ZM50.5203 31.9529L51.1922 29.2182H51.9112L53.014 31.042L53.445 29.2182H54.1639L53.492 31.9529H52.724L51.6681 30.1781L51.1882 31.9529H50.5203ZM54.4539 30.56C54.5499 30.319 54.6459 30.0801 54.8379 29.8881C54.9461 29.7247 55.0952 29.594 55.2688 29.5041C55.4302 29.3959 55.6079 29.3142 55.7958 29.2631C56.0837 29.2161 56.3227 29.1671 56.6597 29.1671C57.1866 29.1671 57.6196 29.2631 57.8586 29.5511C58.1465 29.7921 58.2425 30.127 58.1465 30.56C58.0036 30.991 57.7626 31.328 57.3786 31.6159C56.9946 31.8569 56.5147 31.9999 55.9387 31.9999C55.4118 31.9999 54.9788 31.8569 54.6908 31.6159C54.4539 31.377 54.3579 31.042 54.4539 30.56ZM55.2688 30.56C55.1728 30.895 55.2219 31.087 55.3648 31.2789C55.5568 31.4219 55.7488 31.5199 56.0837 31.5199C56.3717 31.5199 56.6597 31.4239 56.8517 31.2789C57.0927 31.087 57.2826 30.895 57.3316 30.56C57.4276 30.272 57.3786 30.0331 57.2356 29.8411C57.0927 29.6981 56.8517 29.6491 56.5147 29.6491C56.2267 29.6491 55.9387 29.6981 55.6998 29.8411C55.5098 30.0331 55.3178 30.2741 55.2688 30.56ZM58.3875 31.9529L59.0595 29.2182H59.8274L59.2515 31.473H61.1713L61.0753 31.9529H58.3875ZM61.7473 30.56C61.8432 30.319 61.9392 30.0801 62.1312 29.8881C62.2395 29.7247 62.3886 29.5919 62.5642 29.5041C62.7562 29.4081 62.8992 29.3121 63.0911 29.2631C63.375 29.2018 63.6651 29.1712 63.9551 29.1671C64.482 29.1671 64.915 29.2631 65.203 29.5511C65.444 29.7921 65.54 30.127 65.444 30.56C65.301 30.991 65.06 31.328 64.676 31.6159C64.2921 31.8569 63.8121 31.9999 63.2382 31.9999C62.7113 31.9999 62.2783 31.8569 62.0393 31.6159C61.7473 31.377 61.6513 31.042 61.7473 30.56ZM62.5622 30.56C62.4662 30.895 62.5131 31.087 62.6582 31.2789C62.8501 31.4219 63.0421 31.5199 63.3791 31.5199C63.6671 31.5199 63.9551 31.4239 64.147 31.2789C64.388 31.087 64.58 30.895 64.627 30.56C64.723 30.272 64.674 30.0331 64.531 29.8411C64.3881 29.6981 64.1471 29.6491 63.8591 29.6491C63.5241 29.6491 63.2362 29.6981 62.9952 29.8411C62.8011 30.0331 62.6091 30.2741 62.5622 30.56ZM67.5987 30.944L67.7416 30.464H69.3735L69.0855 31.5669C68.8935 31.6629 68.6546 31.7589 68.3176 31.8549C68.0235 31.9488 67.7151 31.9979 67.4067 31.9979C67.0227 31.9979 66.7347 31.9019 66.4468 31.8059C66.2058 31.6629 66.0138 31.5179 65.9198 31.2789C65.8238 31.04 65.8238 30.799 65.8708 30.56C65.9668 30.272 66.1118 30.0331 66.3038 29.7921C66.5428 29.6001 66.8307 29.4081 67.1187 29.3121C67.3577 29.2161 67.6947 29.1692 68.0296 29.1692C68.5096 29.1692 68.8466 29.2161 69.0855 29.3611C69.3265 29.5041 69.4225 29.6981 69.4695 29.9371L68.6546 30.0801C68.6546 29.9371 68.5586 29.8411 68.4626 29.7451C68.3196 29.6491 68.1256 29.6491 67.9357 29.6491C67.5987 29.6491 67.3107 29.6981 67.0717 29.8411C66.8798 29.9841 66.7368 30.2251 66.6878 30.513C66.5918 30.848 66.6408 31.089 66.7838 31.281C66.9267 31.424 67.1208 31.522 67.4557 31.522C67.5987 31.522 67.7927 31.475 67.9357 31.426C68.1276 31.379 68.2706 31.33 68.4156 31.283L68.5116 30.9481L67.5987 30.944ZM70.7174 31.9529L70.9563 30.801L69.9964 29.2182H70.9073L71.4833 30.2741L72.6352 29.2182H73.4991L71.7243 30.801L71.4363 31.9529H70.7174ZM0 26.8184H73.8831L74.651 23.4117H0.767935L0 26.8184Z" fill="#ADB7C2"/>
</g>
<defs>
<clipPath id="clip0_1_6919">
<rect width="80.1225" height="32" fill="white"/>
</clipPath>
</defs>
</svg>
