<svg width="42" height="43" viewBox="0 0 42 43" fill="none" xmlns="http://www.w3.org/2000/svg">
<path d="M40.9887 22.9938V14.996C40.9887 4.99887 36.9898 1 26.9926 1H14.996C4.99887 1 1 4.99887 1 14.996V26.9926C1 36.9898 4.99887 40.9887 14.996 40.9887H22.9938" stroke="#008AFF" stroke-width="2" stroke-linecap="round" stroke-linejoin="round"/>
<path d="M11.6572 25.9726L16.4159 19.7943C17.0957 18.9146 18.3553 18.7546 19.2351 19.4344L22.8941 22.3136C23.7738 22.9934 25.0334 22.8335 25.7132 21.9737L30.332 16.0154" stroke="#008AFF" stroke-width="2" stroke-linecap="round" stroke-linejoin="round"/>
<path d="M35.9501 28.6321L36.5099 29.7718C36.7898 30.3316 37.4896 30.8515 38.1094 30.9714L38.8692 31.0914C41.1486 31.4713 41.6884 33.1508 40.0489 34.8103L39.3491 35.5101C38.8892 35.99 38.6293 36.9097 38.7693 37.5496L38.8692 37.9694C39.4891 40.7287 38.0295 41.7883 35.6302 40.3487L35.1103 40.0488C34.4905 39.6889 33.4908 39.6889 32.8709 40.0488L32.3511 40.3487C29.9318 41.8083 28.4722 40.7287 29.112 37.9694L29.2119 37.5496C29.3519 36.9097 29.092 35.99 28.6322 35.5101L27.9323 34.8103C26.2928 33.1508 26.8326 31.4713 29.112 31.0914L29.8718 30.9714C30.4716 30.8715 31.1914 30.3316 31.4713 29.7718L32.0312 28.6321C33.1108 26.4527 34.8704 26.4527 35.9501 28.6321Z" stroke="#008AFF" stroke-width="2" stroke-linecap="round" stroke-linejoin="round"/>
</svg>
