<svg width="34" height="42" viewBox="0 0 34 42" fill="none" xmlns="http://www.w3.org/2000/svg">
<path d="M16.563 13.2222L14.527 16.7854C14.0703 17.5708 14.4509 18.2222 15.3452 18.2222H17.7618C18.6752 18.2222 19.0367 18.8735 18.5801 19.659L16.563 23.2222" stroke="#008AFF" stroke-width="2" stroke-linecap="round" stroke-linejoin="round"/>
<path d="M9.2614 32.4696V30.1943C4.7265 27.4679 1 22.1524 1 16.5034C1 6.79428 9.97121 -0.81614 20.1057 1.38068C24.5617 2.3614 28.4657 5.30358 30.4965 9.36377C34.6174 17.6019 30.2797 26.3499 23.9111 30.1747V32.45C23.9111 33.0188 24.128 34.333 22.0183 34.333H11.1542C8.98536 34.3526 9.2614 33.5092 9.2614 32.4696Z" stroke="#008AFF" stroke-width="2" stroke-linecap="round" stroke-linejoin="round"/>
<path d="M9.88867 41C14.2506 39.5185 18.8601 39.5185 23.222 41" stroke="#008AFF" stroke-width="2" stroke-linecap="round" stroke-linejoin="round"/>
</svg>
