<svg width="65" height="65" viewBox="0 0 65 65" fill="none" xmlns="http://www.w3.org/2000/svg">
<circle cx="32.5" cy="32.5" r="32.5" fill="#FFF6E4"/>
<path d="M40.5 21.75C39.5054 21.75 38.5516 22.1451 37.8483 22.8483C37.1451 23.5516 36.75 24.5054 36.75 25.5V40.5C36.75 41.4946 37.1451 42.4484 37.8483 43.1517C38.5516 43.8549 39.5054 44.25 40.5 44.25C41.4946 44.25 42.4484 43.8549 43.1517 43.1517C43.8549 42.4484 44.25 41.4946 44.25 40.5C44.25 39.5054 43.8549 38.5516 43.1517 37.8483C42.4484 37.1451 41.4946 36.75 40.5 36.75H25.5C24.5054 36.75 23.5516 37.1451 22.8483 37.8483C22.1451 38.5516 21.75 39.5054 21.75 40.5C21.75 41.4946 22.1451 42.4484 22.8483 43.1517C23.5516 43.8549 24.5054 44.25 25.5 44.25C26.4946 44.25 27.4484 43.8549 28.1517 43.1517C28.8549 42.4484 29.25 41.4946 29.25 40.5V25.5C29.25 24.5054 28.8549 23.5516 28.1517 22.8483C27.4484 22.1451 26.4946 21.75 25.5 21.75C24.5054 21.75 23.5516 22.1451 22.8483 22.8483C22.1451 23.5516 21.75 24.5054 21.75 25.5C21.75 26.4946 22.1451 27.4484 22.8483 28.1517C23.5516 28.8549 24.5054 29.25 25.5 29.25H40.5C41.4946 29.25 42.4484 28.8549 43.1517 28.1517C43.8549 27.4484 44.25 26.4946 44.25 25.5C44.25 24.5054 43.8549 23.5516 43.1517 22.8483C42.4484 22.1451 41.4946 21.75 40.5 21.75Z" stroke="#FFAB2E" stroke-width="2" stroke-linecap="round" stroke-linejoin="round"/>
</svg>
