<svg width="60" height="60" viewBox="0 0 60 60" fill="none" xmlns="http://www.w3.org/2000/svg">
<g clip-path="url(#clip0_1_6573)">
<path d="M59.9297 4.47925C59.7998 2.09589 57.9042 0.200615 55.5209 0.0705373C50.7118 -0.192197 41.3011 0.0633891 32.3025 4.71773C27.7152 7.09054 22.8637 11.1135 18.9919 15.755C18.9442 15.8122 18.8978 15.8698 18.8505 15.9271L10.0637 16.6058C8.61741 16.7176 7.32917 17.4757 6.52925 18.6855L0.534639 27.7526C-0.0720411 28.6701 -0.168486 29.8185 0.276475 30.8243C0.721553 31.8302 1.63608 32.5312 2.723 32.6996L10.1258 33.8462C10.0997 33.9901 10.0735 34.1339 10.0494 34.2778C9.803 35.752 10.2914 37.2677 11.3562 38.3324L21.6678 48.6441C22.5505 49.5268 23.7434 50.0135 24.9657 50.0135C25.2174 50.0135 25.4705 49.9928 25.7225 49.9507C25.8664 49.9267 26.0101 49.9004 26.1541 49.8743L27.3006 57.2773C27.469 58.3642 28.17 59.2788 29.1757 59.7238C29.5942 59.9089 30.0371 60.0003 30.4779 60.0003C31.097 60.0002 31.7118 59.82 32.2476 59.4657L41.3146 53.471C42.5246 52.671 43.2825 51.3827 43.3941 49.9365L44.0728 41.1499C44.1301 41.1026 44.1878 41.0562 44.245 41.0085C48.8867 37.1367 52.9097 32.2851 55.2824 27.6977C59.937 18.6988 60.1921 9.28804 59.9297 4.47925ZM39.3757 50.5383L30.7026 56.2726L29.5851 49.058C33.2507 47.9802 36.8768 46.254 40.3314 43.9416L39.8892 49.6656C39.8617 50.0227 39.6744 50.3408 39.3757 50.5383ZM24.1537 46.1582L13.842 35.8465C13.5789 35.5833 13.4573 35.2135 13.5169 34.8574C13.8235 33.0243 14.2998 31.2792 14.8895 29.6353L30.3616 45.1073C28.3872 45.8146 26.6187 46.2364 25.1427 46.4832C24.786 46.5425 24.4167 46.4212 24.1537 46.1582ZM10.3346 20.111L16.0585 19.6689C13.7459 23.1234 12.0197 26.7496 10.9419 30.4152L3.72741 29.2978L9.46187 20.6245C9.65944 20.3257 9.97761 20.1385 10.3346 20.111ZM41.9933 38.3086C39.1535 40.6773 36.3969 42.3906 33.8561 43.6303L16.3692 26.1435C17.9932 22.8266 19.9752 20.0646 21.6916 18.007C25.2746 13.7115 29.7309 10.0059 33.9178 7.8403C42.1765 3.56847 50.8778 3.33843 55.3295 3.58077C55.9187 3.61288 56.3874 4.08151 56.4195 4.67085C56.6622 9.12257 56.4317 17.8237 52.1598 26.0825C49.9943 30.2694 46.2887 34.7256 41.9933 38.3086Z" fill="#008AFF"/>
<path d="M41.1004 27.6846C43.3506 27.6844 45.6018 26.8278 47.3149 25.1146C48.975 23.4546 49.8891 21.2475 49.8891 18.9C49.8891 16.5525 48.9749 14.3454 47.3149 12.6855C43.8881 9.25854 38.3123 9.25877 34.8858 12.6855C33.2257 14.3454 32.3115 16.5525 32.3115 18.9C32.3115 21.2475 33.2258 23.4546 34.8858 25.1146C36.5993 26.8281 38.8493 27.6849 41.1004 27.6846ZM37.3714 15.1712C38.3994 14.1432 39.7498 13.6292 41.1001 13.6292C42.4506 13.6292 43.8009 14.1432 44.8289 15.1712C45.8249 16.1672 46.3733 17.4914 46.3733 18.8999C46.3733 20.3084 45.8249 21.6327 44.8289 22.6287C42.773 24.6848 39.4274 24.6846 37.3713 22.6287C36.3754 21.6327 35.8268 20.3085 35.8268 18.9C35.8268 17.4915 36.3755 16.1672 37.3714 15.1712Z" fill="#008AFF"/>
<path d="M1.79291 49.4458C2.24279 49.4458 2.69268 49.2742 3.0358 48.9308L8.77482 43.1918C9.46131 42.5053 9.46131 41.3924 8.77482 40.7059C8.08846 40.0194 6.97541 40.0194 6.28893 40.7059L0.55002 46.4449C-0.136465 47.1314 -0.136465 48.2443 0.55002 48.9308C0.893144 49.2741 1.34303 49.4458 1.79291 49.4458Z" fill="#008AFF"/>
<path d="M14.0344 45.9655C13.3481 45.2791 12.235 45.2791 11.5485 45.9655L0.514863 56.9993C-0.171621 57.6858 -0.171621 58.7988 0.514863 59.4852C0.858106 59.8285 1.30787 60 1.75775 60C2.20764 60 2.65752 59.8285 3.00065 59.4851L14.0343 48.4514C14.7209 47.765 14.7209 46.652 14.0344 45.9655Z" fill="#008AFF"/>
<path d="M16.8086 51.2249L11.0696 56.964C10.3831 57.6505 10.3831 58.7634 11.0696 59.4499C11.4128 59.7931 11.8627 59.9648 12.3124 59.9648C12.7622 59.9648 13.2122 59.7932 13.5553 59.4499L19.2944 53.7108C19.9808 53.0244 19.9808 51.9114 19.2944 51.2249C18.608 50.5385 17.4949 50.5385 16.8086 51.2249Z" fill="#008AFF"/>
</g>
<defs>
<clipPath id="clip0_1_6573">
<rect width="60" height="60" fill="white"/>
</clipPath>
</defs>
</svg>
