<svg width="60" height="60" viewBox="0 0 60 60" fill="none" xmlns="http://www.w3.org/2000/svg">
<g clip-path="url(#clip0_1_6562)">
<path d="M56.1503 49.9246L48.7116 35.0459C51.1465 31.4548 52.5706 27.1252 52.5706 22.4689C52.5706 10.0795 42.4911 0 30.1017 0C17.7123 0 7.63282 10.0795 7.63282 22.4689C7.63282 27.1252 9.05692 31.4552 11.4922 35.0468L4.05265 49.9246C3.78028 50.4698 3.80958 51.1166 4.12955 51.6348C4.44999 52.153 5.01578 52.4689 5.62507 52.4689H14.1601L19.2811 59.2969C19.6152 59.7418 20.1371 60 20.6873 60C21.4165 60 21.991 59.5651 22.2597 59.0282L29.313 44.9222C29.5748 44.9313 29.8376 44.9377 30.1017 44.9377C30.3658 44.9377 30.6286 44.9313 30.8904 44.9222L37.9436 59.0282C38.2114 59.5642 38.7864 60 39.5161 60C40.0658 60 40.5881 59.7418 40.9219 59.2969L46.0433 52.4689H54.5783C55.1876 52.4689 55.7534 52.153 56.0734 51.6348C56.3938 51.1166 56.4231 50.4698 56.1503 49.9246ZM20.3875 54.912L16.4452 49.6564C16.1133 49.2137 15.5924 48.9532 15.039 48.9532H8.46915L13.9239 38.0447C17.0211 41.2601 21.0641 43.5585 25.601 44.4846L20.3875 54.912ZM11.1484 22.4689C11.1484 12.0181 19.6509 3.51562 30.1017 3.51562C40.5524 3.51562 49.0549 12.0181 49.0549 22.4689C49.0549 32.9196 40.5524 41.4221 30.1017 41.4221C19.6509 41.4221 11.1484 32.9196 11.1484 22.4689ZM45.1639 48.9532C44.611 48.9532 44.09 49.2137 43.7577 49.6564L39.8159 54.912L34.602 44.4846C39.1393 43.558 43.1827 41.2601 46.28 38.0438L51.7338 48.9528H45.1639V48.9532Z" fill="#008AFF"/>
<path d="M39.0743 25.3844L43.9833 19.525C44.3724 19.0608 44.4951 18.4291 44.3079 17.8532C44.1207 17.2769 43.6501 16.8379 43.0628 16.691L35.6475 14.8361L31.5912 8.35648C31.2699 7.84286 30.7068 7.53113 30.1012 7.53113C29.4956 7.53113 28.9325 7.84286 28.6112 8.35648L24.5559 14.8361L17.141 16.691C16.5532 16.8379 16.0827 17.2769 15.8954 17.8528C15.7087 18.4291 15.8309 19.0608 16.22 19.525L21.129 25.3844L20.6008 33.0093C20.5591 33.6136 20.831 34.1968 21.3209 34.5529C22.0647 35.0935 22.8214 34.8376 23.0114 34.7612L30.1012 31.9038L37.1911 34.7617C37.7527 34.9878 38.3913 34.9091 38.8811 34.5534C39.3714 34.1972 39.6433 33.614 39.6016 33.0098L39.0743 25.3844ZM35.9244 23.6696C35.6324 24.0184 35.4868 24.4661 35.5184 24.9197L35.9006 30.4509L30.7586 28.3781C30.1886 28.1483 29.6888 28.2793 29.4443 28.3781L24.3023 30.4509L24.6854 24.9202C24.7165 24.4666 24.571 24.0184 24.2789 23.6696L20.7184 19.4202L26.0967 18.0748C26.538 17.9645 26.9188 17.6875 27.1601 17.3021L30.1017 12.6022L33.0437 17.3021C33.285 17.6875 33.6658 17.9645 34.1071 18.0748L39.4854 19.4202L35.9244 23.6696Z" fill="#008AFF"/>
</g>
<defs>
<clipPath id="clip0_1_6562">
<rect width="60" height="60" fill="white"/>
</clipPath>
</defs>
</svg>
