<svg width="60" height="60" viewBox="0 0 60 60" fill="none" xmlns="http://www.w3.org/2000/svg">
<path d="M1.75781 60H19.6965C20.6673 60 21.4543 59.213 21.4543 58.2422V56.2837C21.4543 52.22 19.1829 48.6769 15.843 46.8571C17.0292 45.5978 17.7585 43.9035 17.7585 42.041C17.7585 38.164 14.6043 35.0098 10.7272 35.0098C6.8502 35.0098 3.69598 38.164 3.69598 42.041C3.69598 43.9035 4.42523 45.5978 5.61141 46.8571C2.27145 48.6769 0 52.22 0 56.2837V58.2422C0 59.213 0.787031 60 1.75781 60ZM7.2116 42.041C7.2116 40.1025 8.78871 38.5254 10.7272 38.5254C12.6657 38.5254 14.2429 40.1025 14.2429 42.041C14.2429 43.9795 12.6657 45.5566 10.7272 45.5566C8.78871 45.5566 7.2116 43.9795 7.2116 42.041ZM10.7272 49.0723C14.4933 49.0723 17.9387 52.0246 17.9387 56.4844H3.51563C3.51563 52.0478 6.94102 49.0723 10.7272 49.0723Z" fill="#008AFF"/>
<path d="M54.3888 46.8571C55.575 45.5978 56.3043 43.9035 56.3043 42.041C56.3043 38.164 53.15 35.0098 49.273 35.0098C45.396 35.0098 42.2418 38.164 42.2418 42.041C42.2418 43.9035 42.971 45.5978 44.1572 46.8571C40.8173 48.6769 38.5459 52.2199 38.5459 56.2837V58.2422C38.5459 59.213 39.3329 60 40.3037 60H58.2423C59.2131 60 60.0001 59.213 60.0001 58.2422V56.2837C60.0001 52.22 57.7287 48.6769 54.3888 46.8571ZM45.7573 42.041C45.7573 40.1025 47.3344 38.5254 49.2729 38.5254C51.2114 38.5254 52.7885 40.1025 52.7885 42.041C52.7885 43.9795 51.2114 45.5566 49.2729 45.5566C47.3344 45.5566 45.7573 43.9795 45.7573 42.041ZM56.4845 56.4844H42.0614C42.0614 52.0478 45.4868 49.0723 49.2729 49.0723C53.0388 49.0723 56.4845 52.0242 56.4845 56.4844Z" fill="#008AFF"/>
<path d="M40.7268 23.2324V21.274C40.7268 17.2103 38.4554 13.6671 35.1155 11.8473C36.3016 10.588 37.0308 8.89371 37.0308 7.03125C37.0308 3.15422 33.8766 0 29.9996 0C26.1225 0 22.9683 3.15422 22.9683 7.03125C22.9683 8.89371 23.6976 10.588 24.8837 11.8473C21.5439 13.6671 19.2725 17.2103 19.2725 21.274V23.2324C19.2725 24.2032 20.0595 24.9902 21.0303 24.9902H38.969C39.9398 24.9902 40.7268 24.2032 40.7268 23.2324ZM26.4839 7.03125C26.4839 5.09273 28.0611 3.51562 29.9996 3.51562C31.9381 3.51562 33.5152 5.09273 33.5152 7.03125C33.5152 8.96977 31.9381 10.5469 29.9996 10.5469C28.0611 10.5469 26.4839 8.96977 26.4839 7.03125ZM37.2112 21.4746H22.788C22.788 17.038 26.2134 14.0625 29.9996 14.0625C33.7654 14.0625 37.2112 17.0145 37.2112 21.4746Z" fill="#008AFF"/>
<path d="M37.1011 44.4198C34.8045 45.1742 32.3828 45.5566 29.9036 45.5566C27.5112 45.5566 25.1685 45.1993 22.9407 44.4946C22.0148 44.2023 21.0273 44.715 20.7346 45.6405C20.4419 46.566 20.9549 47.5538 21.8805 47.8465C24.4516 48.6597 27.151 49.0721 29.9035 49.0721C32.7562 49.0721 35.5469 48.6305 38.1982 47.7597C39.1205 47.4568 39.6226 46.4634 39.3196 45.5411C39.0167 44.6189 38.0234 44.1166 37.1011 44.4198Z" fill="#008AFF"/>
<path d="M13.7962 14.5675C11.8549 16.4389 10.2046 18.6143 8.891 21.0337C7.52975 23.5409 6.58615 26.2041 6.08647 28.9494C5.89065 30.0253 6.71623 31.0222 7.81791 31.0222C8.65088 31.0222 9.3908 30.4275 9.54526 29.579C9.97815 27.2009 10.7975 24.8902 11.9805 22.7112C13.1223 20.6085 14.554 18.7201 16.2361 17.0987C16.935 16.425 16.9555 15.3122 16.2818 14.6132C15.608 13.9143 14.4953 13.8938 13.7962 14.5675Z" fill="#008AFF"/>
<path d="M46.2034 14.5677C45.5043 13.8938 44.3915 13.9145 43.7178 14.6134C43.0441 15.3124 43.0645 16.4252 43.7635 17.0989C45.4456 18.7203 46.8774 20.6086 48.0191 22.7114C49.2022 24.8905 50.0214 27.2012 50.4543 29.5791C50.628 30.5332 51.5421 31.1676 52.4984 30.9937C53.4535 30.8199 54.0869 29.9046 53.9131 28.9496C53.4134 26.2043 52.4698 23.5411 51.1086 21.0338C49.795 18.6145 48.1447 16.4389 46.2034 14.5677Z" fill="#008AFF"/>
</svg>
