<svg width="60" height="60" viewBox="0 0 60 60" fill="none" xmlns="http://www.w3.org/2000/svg">
<path d="M58.2305 21.0938L52.9688 21.1289V1.75781C52.9688 0.787031 52.1817 0 51.2109 0H33.75C33.1369 0 32.5679 0.31957 32.2488 0.843164L28.5497 6.91406H1.75781C0.787031 6.91406 0 7.70109 0 8.67188V43.8281C0 44.7989 0.787031 45.5859 1.75781 45.5859H10.7812C10.7816 53.3205 10.7804 52.9677 10.7822 53.0271C10.845 56.8826 14.0009 60 17.8711 60H58.2422C59.213 60 60 59.213 60 58.2422V22.8516C60 21.8566 59.1775 21.0799 58.2305 21.0938ZM3.51562 42.0703V10.4297H29.5371C30.1502 10.4297 30.7192 10.1101 31.0383 9.58652L34.7374 3.51562H49.4531V21.1523L24.8438 21.3164V15.9375C24.8438 14.9667 24.0567 14.1797 23.0859 14.1797H17.8711C13.9618 14.1797 10.7812 17.3602 10.7812 21.2695V42.0703H3.51562ZM21.3281 17.6953V23.0848V23.087V45.8203C18.7645 45.9716 16.7534 45.3489 14.2969 46.7889V21.2695C14.2969 19.2987 15.9004 17.6953 17.8711 17.6953H21.3281ZM56.4844 56.4844H17.8711C15.9004 56.4844 14.2969 54.881 14.2969 52.9102C14.2969 50.9393 15.9004 49.3359 17.8711 49.3359H23.0859C24.0567 49.3359 24.8438 48.5489 24.8438 47.5781V24.832L56.4844 24.6211V56.4844Z" fill="#008AFF"/>
<path d="M30 49.3359H51.2109C52.948 49.3359 53.6287 47.072 52.1823 46.113L30.9714 32.0505C29.8096 31.2804 28.2422 32.1085 28.2422 33.5156V47.5781C28.2422 48.5489 29.0292 49.3359 30 49.3359ZM31.7578 36.79L45.3784 45.8203H31.7578V36.79Z" fill="#008AFF"/>
</svg>
